<svg width="661" height="292" viewBox="0 0 661 292" fill="none" xmlns="http://www.w3.org/2000/svg">
<g opacity="0.6">
<path d="M57.1287 201.612L69.186 107.273L81.1444 198.228L57.1287 201.612ZM88.4167 74.3984L52.2531 79.4909L24.2513 267.121L49 263.638L53.6779 227.033L84.4964 222.692L89.0426 258.001L115.735 254.245L88.4167 74.3984Z" fill="#3A3841"/>
<path d="M161.304 142.854L161.403 90.3609L173.534 88.6524C182.997 87.3236 187.115 92.5151 187.09 105.638L187.065 119.81C187.041 134.51 180.963 140.089 171.014 141.492L161.304 142.854ZM174.308 62.2986L134.76 67.8698L134.422 251.604L161.114 247.849L161.263 169.109L170.478 167.813C182.618 166.105 187.214 170.966 187.181 188.026L187.115 221.619C187.09 236.574 188.062 239.331 189.503 243.846L216.681 240.016C214.021 233.57 213.791 227.041 213.807 218.119L213.865 185.831C213.906 165.098 209.557 152.065 196.224 149.482V148.954C208.124 142.029 213.733 129.17 213.766 110.269L213.791 98.986C213.84 70.6348 201.972 58.4028 174.308 62.2986Z" fill="#3A3841"/>
<path d="M265.157 128.22L265.256 75.7271L277.396 74.0186C286.859 72.6898 290.969 77.8813 290.944 91.0046L290.919 105.176C290.894 119.876 284.816 125.455 274.876 126.858L265.157 128.22ZM278.17 47.673L238.613 53.2442L238.276 236.978L264.968 233.223L265.116 154.483L274.34 153.187C286.472 151.479 291.076 156.34 291.043 173.401L290.977 206.993C290.952 221.949 291.916 224.705 293.365 229.22L320.543 225.39C317.883 218.944 317.653 212.416 317.669 203.493L317.727 171.205C317.768 150.472 313.419 137.44 300.086 134.856V134.328C311.986 127.403 317.587 114.552 317.62 95.6431L317.644 84.3604C317.694 56.0091 305.834 43.7772 278.17 47.673Z" fill="#3A3841"/>
<path d="M369.168 34.8553L342.476 38.619L342.138 222.345L368.83 218.59L369.168 34.8553Z" fill="#3A3841"/>
<path d="M474.966 19.9573L450.456 23.4073L432.469 170.264L415.025 28.4007L388.094 32.1891L413.469 212.3L448.907 207.307L474.966 19.9573Z" fill="#3A3841"/>
<path d="M512.34 137.497L524.405 43.1583L536.364 134.113L512.34 137.497ZM543.628 10.2841L507.472 15.3765L479.47 203.007L504.219 199.524L508.897 162.919L539.716 158.577L544.262 193.886L570.954 190.131L543.628 10.2841Z" fill="#3A3841"/>
<path d="M616.671 0L589.978 3.75545L589.633 187.49L660.255 177.544L660.304 151.297L616.374 157.479L616.671 0Z" fill="#3A3841"/>
</g>
<path d="M32.8774 225.863L44.9347 131.524L56.8931 222.479L32.8774 225.863ZM64.1654 98.6498L28.0018 103.742L0 291.372L24.7487 287.889L29.4266 251.284L60.2451 246.943L64.7913 282.252L91.4836 278.497L64.1654 98.6498Z" fill="white"/>
<path d="M137.052 167.105L137.151 114.612L149.283 112.904C158.746 111.575 162.863 116.766 162.839 129.89L162.814 144.061C162.789 158.761 156.711 164.34 146.762 165.744L137.052 167.105ZM150.057 86.5499L110.508 92.1211L110.171 275.855L136.863 272.1L137.011 193.36L146.227 192.064C158.367 190.356 162.962 195.217 162.929 212.278L162.863 245.87C162.839 260.825 163.811 263.582 165.252 268.097L192.43 264.267C189.77 257.821 189.539 251.293 189.556 242.37L189.613 210.082C189.655 189.349 185.306 176.316 171.972 173.733V173.205C183.873 166.28 189.482 153.421 189.515 134.52L189.539 123.237C189.589 94.8861 177.721 82.6542 150.057 86.5499Z" fill="white"/>
<path d="M240.906 152.471L241.005 99.9783L253.145 98.2698C262.608 96.941 266.717 102.132 266.693 115.256L266.668 129.427C266.643 144.127 260.565 149.706 250.624 151.11L240.906 152.471ZM253.919 71.9242L214.362 77.4954L214.024 261.23L240.717 257.474L240.865 178.735L250.089 177.439C262.221 175.73 266.824 180.592 266.791 197.652L266.726 231.244C266.701 246.2 267.664 248.956 269.114 253.471L296.292 249.642C293.632 243.195 293.401 236.667 293.418 227.745L293.475 195.456C293.517 174.723 289.168 161.691 275.834 159.107V158.579C287.735 151.654 293.335 138.803 293.368 119.894L293.393 108.612C293.443 80.2604 281.583 68.0285 253.919 71.9242Z" fill="white"/>
<path d="M344.917 59.1067L318.224 62.8703L317.887 246.596L344.579 242.841L344.917 59.1067Z" fill="white"/>
<path d="M450.714 44.2086L426.204 47.6586L408.217 194.516L390.774 52.6521L363.843 56.4405L389.217 236.551L424.656 231.558L450.714 44.2086Z" fill="white"/>
<path d="M488.088 161.749L500.154 67.4097L512.112 158.365L488.088 161.749ZM519.376 34.5354L483.221 39.6279L455.219 227.258L479.968 223.775L484.646 187.17L515.464 182.829L520.01 218.138L546.703 214.382L519.376 34.5354Z" fill="white"/>
<path d="M592.419 24.2513L565.727 28.0068L565.381 211.741L636.003 201.795L636.053 175.549L592.123 181.731L592.419 24.2513Z" fill="white"/>
</svg>
